<?xml version="1.0" encoding="UTF-8" standalone="no"?>
<!DOCTYPE svg PUBLIC "-//W3C//DTD SVG 1.1//EN" "http://www.w3.org/Graphics/SVG/1.1/DTD/svg11.dtd">
<svg width="100%" height="100%" viewBox="0 0 300 57" version="1.1" xmlns="http://www.w3.org/2000/svg" xmlns:xlink="http://www.w3.org/1999/xlink" xml:space="preserve" xmlns:serif="http://www.serif.com/" style="fill-rule:evenodd;clip-rule:evenodd;stroke-linejoin:round;stroke-miterlimit:2;">
    <g transform="matrix(1,0,0,1,-203.314,-1860.31)">
        <g transform="matrix(1.77778,0,0,2.77623,0,1550.66)">
            <g transform="matrix(0.431291,0,0,0.45488,65.0398,66.3054)">
                <g transform="matrix(0.752938,0,0,0.48215,-110.28,-781.183)">
                    <path d="M298.356,1898.07L298.356,1827.45L299.893,1827.45L346.846,1881.51L346.846,1827.45L353.807,1827.45L353.807,1898.07L352.223,1898.07L305.654,1844.69L305.654,1898.07L298.356,1898.07Z" style="fill-rule:nonzero;"/>
                    <path d="M417.065,1845.84L417.065,1898.07L410.439,1898.07L410.439,1889.1C407.623,1892.52 404.462,1895.1 400.958,1896.83C397.453,1898.56 393.62,1899.42 389.459,1899.42C382.066,1899.42 375.753,1896.74 370.52,1891.38C365.286,1886.02 362.67,1879.5 362.67,1871.81C362.67,1864.29 365.31,1857.86 370.592,1852.51C375.873,1847.17 382.226,1844.5 389.651,1844.5C393.94,1844.5 397.821,1845.41 401.294,1847.23C404.766,1849.06 407.815,1851.79 410.439,1855.44L410.439,1845.84L417.065,1845.84ZM390.179,1850.98C386.435,1850.98 382.978,1851.9 379.809,1853.74C376.641,1855.58 374.12,1858.16 372.248,1861.49C370.375,1864.82 369.439,1868.34 369.439,1872.05C369.439,1875.73 370.383,1879.26 372.272,1882.62C374.16,1885.98 376.697,1888.59 379.881,1890.47C383.066,1892.34 386.483,1893.27 390.131,1893.27C393.812,1893.27 397.301,1892.35 400.597,1890.49C403.894,1888.63 406.431,1886.12 408.207,1882.95C409.983,1879.78 410.871,1876.21 410.871,1872.25C410.871,1866.2 408.879,1861.14 404.894,1857.07C400.91,1853.01 396.005,1850.98 390.179,1850.98Z" style="fill-rule:nonzero;"/>
                    <path d="M472.256,1845.84L479.026,1845.84L479.026,1887.46C479.026,1894.79 478.386,1900.15 477.105,1903.55C475.345,1908.35 472.288,1912.05 467.936,1914.64C463.583,1917.23 458.35,1918.53 452.236,1918.53C447.756,1918.53 443.731,1917.89 440.162,1916.63C436.593,1915.37 433.689,1913.67 431.448,1911.54C429.208,1909.41 427.143,1906.3 425.255,1902.2L432.553,1902.2C434.537,1905.66 437.097,1908.22 440.234,1909.88C443.371,1911.55 447.259,1912.38 451.9,1912.38C456.477,1912.38 460.342,1911.53 463.495,1909.81C466.647,1908.1 468.896,1905.95 470.24,1903.36C471.584,1900.76 472.256,1896.59 472.256,1890.83L472.256,1888.14C469.728,1891.34 466.639,1893.79 462.991,1895.51C459.342,1897.22 455.469,1898.07 451.372,1898.07C446.571,1898.07 442.058,1896.88 437.834,1894.5C433.609,1892.11 430.344,1888.9 428.04,1884.87C425.735,1880.84 424.583,1876.41 424.583,1871.57C424.583,1866.74 425.783,1862.24 428.184,1858.06C430.584,1853.88 433.905,1850.58 438.146,1848.14C442.387,1845.71 446.859,1844.5 451.564,1844.5C455.469,1844.5 459.11,1845.3 462.486,1846.92C465.863,1848.54 469.12,1851.2 472.256,1854.91L472.256,1845.84ZM452.428,1850.98C448.62,1850.98 445.083,1851.9 441.818,1853.74C438.554,1855.58 435.993,1858.12 434.137,1861.37C432.281,1864.62 431.352,1868.13 431.352,1871.91C431.352,1877.64 433.273,1882.38 437.113,1886.12C440.954,1889.87 445.931,1891.74 452.044,1891.74C458.222,1891.74 463.191,1889.88 466.951,1886.17C470.712,1882.45 472.592,1877.57 472.592,1871.53C472.592,1867.59 471.728,1864.08 470,1860.99C468.272,1857.9 465.823,1855.46 462.655,1853.67C459.486,1851.87 456.077,1850.98 452.428,1850.98Z" style="fill-rule:nonzero;"/>
                    <path d="M540.555,1845.84L540.555,1898.07L533.929,1898.07L533.929,1889.1C531.113,1892.52 527.952,1895.1 524.448,1896.83C520.943,1898.56 517.11,1899.42 512.949,1899.42C505.556,1899.42 499.243,1896.74 494.01,1891.38C488.776,1886.02 486.16,1879.5 486.16,1871.81C486.16,1864.29 488.8,1857.86 494.082,1852.51C499.363,1847.17 505.716,1844.5 513.141,1844.5C517.43,1844.5 521.311,1845.41 524.784,1847.23C528.256,1849.06 531.305,1851.79 533.929,1855.44L533.929,1845.84L540.555,1845.84ZM513.669,1850.98C509.925,1850.98 506.468,1851.9 503.299,1853.74C500.131,1855.58 497.61,1858.16 495.738,1861.49C493.865,1864.82 492.929,1868.34 492.929,1872.05C492.929,1875.73 493.873,1879.26 495.762,1882.62C497.65,1885.98 500.187,1888.59 503.371,1890.47C506.556,1892.34 509.973,1893.27 513.621,1893.27C517.302,1893.27 520.791,1892.35 524.087,1890.49C527.384,1888.63 529.921,1886.12 531.697,1882.95C533.473,1879.78 534.361,1876.21 534.361,1872.25C534.361,1866.2 532.369,1861.14 528.384,1857.07C524.4,1853.01 519.495,1850.98 513.669,1850.98Z" style="fill-rule:nonzero;"/>
                    <path d="M556.619,1826.44L563.388,1826.44L563.388,1845.84L574.046,1845.84L574.046,1851.6L563.388,1851.6L563.388,1898.07L556.619,1898.07L556.619,1851.6L547.449,1851.6L547.449,1845.84L556.619,1845.84L556.619,1826.44Z" style="fill-rule:nonzero;"/>
                    <path d="M631.206,1845.84L631.206,1898.07L624.581,1898.07L624.581,1889.1C621.764,1892.52 618.604,1895.1 615.099,1896.83C611.594,1898.56 607.762,1899.42 603.601,1899.42C596.207,1899.42 589.894,1896.74 584.661,1891.38C579.428,1886.02 576.811,1879.5 576.811,1871.81C576.811,1864.29 579.452,1857.86 584.733,1852.51C590.014,1847.17 596.367,1844.5 603.793,1844.5C608.082,1844.5 611.962,1845.41 615.435,1847.23C618.908,1849.06 621.956,1851.79 624.581,1855.44L624.581,1845.84L631.206,1845.84ZM604.321,1850.98C600.576,1850.98 597.119,1851.9 593.951,1853.74C590.782,1855.58 588.262,1858.16 586.389,1861.49C584.517,1864.82 583.581,1868.34 583.581,1872.05C583.581,1875.73 584.525,1879.26 586.413,1882.62C588.302,1885.98 590.838,1888.59 594.023,1890.47C597.207,1892.34 600.624,1893.27 604.273,1893.27C607.954,1893.27 611.442,1892.35 614.739,1890.49C618.036,1888.63 620.572,1886.12 622.348,1882.95C624.125,1879.78 625.013,1876.21 625.013,1872.25C625.013,1866.2 623.021,1861.14 619.036,1857.07C615.051,1853.01 610.146,1850.98 604.321,1850.98Z" style="fill-rule:nonzero;"/>
                </g>
                <g transform="matrix(0.426224,0,0,0.272936,218.564,-398.489)">
                    <path d="M379.901,1827.45L387.006,1827.45L387.006,1857.07L422.917,1857.07L422.917,1827.45L430.022,1827.45L430.022,1898.07L422.917,1898.07L422.917,1863.99L387.006,1863.99L387.006,1898.07L379.901,1898.07L379.901,1827.45Z" style="fill-rule:nonzero;"/>
                    <path d="M448.41,1824.33C449.946,1824.33 451.259,1824.88 452.347,1825.96C453.435,1827.05 453.979,1828.37 453.979,1829.9C453.979,1831.4 453.435,1832.7 452.347,1833.79C451.259,1834.88 449.946,1835.42 448.41,1835.42C446.906,1835.42 445.61,1834.88 444.521,1833.79C443.433,1832.7 442.889,1831.4 442.889,1829.9C442.889,1828.37 443.433,1827.05 444.521,1825.96C445.61,1824.88 446.906,1824.33 448.41,1824.33ZM445.049,1845.84L451.819,1845.84L451.819,1898.07L445.049,1898.07L445.049,1845.84Z" style="fill-rule:nonzero;"/>
                    <path d="M510.726,1845.84L517.496,1845.84L517.496,1887.46C517.496,1894.79 516.856,1900.15 515.575,1903.55C513.815,1908.35 510.758,1912.05 506.406,1914.64C502.053,1917.23 496.82,1918.53 490.706,1918.53C486.226,1918.53 482.201,1917.89 478.632,1916.63C475.063,1915.37 472.159,1913.67 469.918,1911.54C467.678,1909.41 465.613,1906.3 463.725,1902.2L471.023,1902.2C473.007,1905.66 475.567,1908.22 478.704,1909.88C481.841,1911.55 485.729,1912.38 490.37,1912.38C494.947,1912.38 498.812,1911.53 501.965,1909.81C505.117,1908.1 507.366,1905.95 508.71,1903.36C510.054,1900.76 510.726,1896.59 510.726,1890.83L510.726,1888.14C508.198,1891.34 505.109,1893.79 501.461,1895.51C497.812,1897.22 493.939,1898.07 489.842,1898.07C485.041,1898.07 480.528,1896.88 476.304,1894.5C472.079,1892.11 468.814,1888.9 466.51,1884.87C464.205,1880.84 463.053,1876.41 463.053,1871.57C463.053,1866.74 464.253,1862.24 466.654,1858.06C469.054,1853.88 472.375,1850.58 476.616,1848.14C480.857,1845.71 485.329,1844.5 490.034,1844.5C493.939,1844.5 497.58,1845.3 500.956,1846.92C504.333,1848.54 507.59,1851.2 510.726,1854.91L510.726,1845.84ZM490.898,1850.98C487.09,1850.98 483.553,1851.9 480.288,1853.74C477.024,1855.58 474.463,1858.12 472.607,1861.37C470.751,1864.62 469.822,1868.13 469.822,1871.91C469.822,1877.64 471.743,1882.38 475.583,1886.12C479.424,1889.87 484.401,1891.74 490.514,1891.74C496.692,1891.74 501.661,1889.88 505.421,1886.17C509.182,1882.45 511.062,1877.57 511.062,1871.53C511.062,1867.59 510.198,1864.08 508.47,1860.99C506.742,1857.9 504.293,1855.46 501.125,1853.67C497.956,1851.87 494.547,1850.98 490.898,1850.98Z" style="fill-rule:nonzero;"/>
                    <path d="M531.899,1825.68L538.62,1825.68L538.62,1855.2C541.34,1851.62 544.333,1848.94 547.598,1847.16C550.862,1845.38 554.399,1844.5 558.208,1844.5C562.113,1844.5 565.577,1845.49 568.602,1847.47C571.626,1849.46 573.859,1852.12 575.299,1855.47C576.739,1858.81 577.46,1864.05 577.46,1871.19L577.46,1898.07L570.738,1898.07L570.738,1873.16C570.738,1867.14 570.498,1863.12 570.018,1861.11C569.186,1857.65 567.674,1855.05 565.481,1853.31C563.289,1851.56 560.416,1850.69 556.864,1850.69C552.799,1850.69 549.158,1852.03 545.941,1854.72C542.725,1857.41 540.604,1860.74 539.58,1864.71C538.94,1867.27 538.62,1872.01 538.62,1878.92L538.62,1898.07L531.899,1898.07L531.899,1825.68Z" style="fill-rule:nonzero;"/>
                </g>
                <g transform="matrix(0.405591,0,0,0.259724,249.337,-349.603)">
                    <path d="M318.688,1884.92L324.69,1881.32C328.914,1889.1 333.795,1892.99 339.333,1892.99C341.701,1892.99 343.925,1892.43 346.006,1891.33C348.086,1890.23 349.671,1888.75 350.759,1886.89C351.847,1885.03 352.391,1883.06 352.391,1880.98C352.391,1878.62 351.591,1876.29 349.991,1874.02C347.782,1870.88 343.749,1867.11 337.892,1862.69C332.003,1858.24 328.338,1855.03 326.898,1853.04C324.402,1849.71 323.153,1846.11 323.153,1842.24C323.153,1839.17 323.89,1836.37 325.362,1833.84C326.834,1831.31 328.906,1829.32 331.579,1827.86C334.252,1826.4 337.156,1825.68 340.293,1825.68C343.621,1825.68 346.734,1826.5 349.631,1828.15C352.527,1829.8 355.592,1832.83 358.824,1837.25L353.063,1841.62C350.407,1838.1 348.142,1835.77 346.27,1834.65C344.398,1833.53 342.357,1832.97 340.149,1832.97C337.3,1832.97 334.972,1833.84 333.163,1835.57C331.355,1837.29 330.451,1839.42 330.451,1841.95C330.451,1843.49 330.771,1844.98 331.411,1846.42C332.051,1847.86 333.219,1849.42 334.916,1851.12C335.844,1852.02 338.884,1854.37 344.037,1858.18C350.151,1862.69 354.344,1866.71 356.616,1870.23C358.888,1873.75 360.025,1877.29 360.025,1880.84C360.025,1885.96 358.08,1890.41 354.191,1894.19C350.303,1897.96 345.574,1899.85 340.005,1899.85C335.716,1899.85 331.827,1898.71 328.338,1896.42C324.85,1894.13 321.633,1890.3 318.688,1884.92Z" style="fill-rule:nonzero;"/>
                    <path d="M424.549,1856.69L419.22,1860C414.611,1853.89 408.322,1850.83 400.353,1850.83C393.983,1850.83 388.694,1852.88 384.485,1856.98C380.277,1861.08 378.172,1866.05 378.172,1871.91C378.172,1875.72 379.14,1879.3 381.077,1882.66C383.013,1886.02 385.67,1888.63 389.046,1890.49C392.423,1892.35 396.208,1893.27 400.401,1893.27C408.082,1893.27 414.355,1890.22 419.22,1884.1L424.549,1887.61C422.053,1891.35 418.7,1894.26 414.491,1896.32C410.283,1898.39 405.49,1899.42 400.113,1899.42C391.855,1899.42 385.006,1896.79 379.565,1891.55C374.123,1886.3 371.403,1879.91 371.403,1872.39C371.403,1867.33 372.675,1862.63 375.22,1858.3C377.764,1853.96 381.261,1850.58 385.71,1848.14C390.159,1845.71 395.136,1844.5 400.641,1844.5C404.097,1844.5 407.434,1845.02 410.651,1846.08C413.867,1847.14 416.596,1848.51 418.836,1850.21C421.077,1851.9 422.981,1854.07 424.549,1856.69Z" style="fill-rule:nonzero;"/>
                    <path d="M437.464,1825.68L444.185,1825.68L444.185,1855.2C446.906,1851.62 449.898,1848.94 453.163,1847.16C456.428,1845.38 459.964,1844.5 463.773,1844.5C467.678,1844.5 471.143,1845.49 474.167,1847.47C477.192,1849.46 479.424,1852.12 480.865,1855.47C482.305,1858.81 483.025,1864.05 483.025,1871.19L483.025,1898.07L476.304,1898.07L476.304,1873.16C476.304,1867.14 476.064,1863.12 475.583,1861.11C474.751,1857.65 473.239,1855.05 471.047,1853.31C468.854,1851.56 465.982,1850.69 462.429,1850.69C458.364,1850.69 454.723,1852.03 451.507,1854.72C448.29,1857.41 446.17,1860.74 445.145,1864.71C444.505,1867.27 444.185,1872.01 444.185,1878.92L444.185,1898.07L437.464,1898.07L437.464,1825.68Z" style="fill-rule:nonzero;"/>
                    <path d="M522.153,1844.5C530.186,1844.5 536.844,1847.41 542.125,1853.23C546.926,1858.55 549.326,1864.84 549.326,1872.1C549.326,1879.4 546.79,1885.78 541.717,1891.23C536.644,1896.69 530.122,1899.42 522.153,1899.42C514.151,1899.42 507.614,1896.69 502.541,1891.23C497.468,1885.78 494.931,1879.4 494.931,1872.1C494.931,1864.87 497.332,1858.6 502.133,1853.28C507.414,1847.42 514.087,1844.5 522.153,1844.5ZM522.153,1851.07C516.584,1851.07 511.799,1853.14 507.798,1857.27C503.797,1861.39 501.797,1866.39 501.797,1872.25C501.797,1876.02 502.709,1879.54 504.533,1882.81C506.358,1886.07 508.822,1888.59 511.927,1890.37C515.031,1892.14 518.44,1893.03 522.153,1893.03C525.865,1893.03 529.274,1892.14 532.379,1890.37C535.483,1888.59 537.948,1886.07 539.772,1882.81C541.596,1879.54 542.509,1876.02 542.509,1872.25C542.509,1866.39 540.5,1861.39 536.483,1857.27C532.467,1853.14 527.69,1851.07 522.153,1851.07Z" style="fill-rule:nonzero;"/>
                    <path d="M586.533,1844.5C594.567,1844.5 601.224,1847.41 606.505,1853.23C611.306,1858.55 613.707,1864.84 613.707,1872.1C613.707,1879.4 611.17,1885.78 606.097,1891.23C601.024,1896.69 594.503,1899.42 586.533,1899.42C578.532,1899.42 571.995,1896.69 566.921,1891.23C561.848,1885.78 559.312,1879.4 559.312,1872.1C559.312,1864.87 561.712,1858.6 566.513,1853.28C571.794,1847.42 578.468,1844.5 586.533,1844.5ZM586.533,1851.07C580.964,1851.07 576.179,1853.14 572.179,1857.27C568.178,1861.39 566.177,1866.39 566.177,1872.25C566.177,1876.02 567.09,1879.54 568.914,1882.81C570.738,1886.07 573.203,1888.59 576.307,1890.37C579.412,1892.14 582.821,1893.03 586.533,1893.03C590.246,1893.03 593.655,1892.14 596.759,1890.37C599.864,1888.59 602.328,1886.07 604.153,1882.81C605.977,1879.54 606.889,1876.02 606.889,1872.25C606.889,1866.39 604.881,1861.39 600.864,1857.27C596.847,1853.14 592.07,1851.07 586.533,1851.07Z" style="fill-rule:nonzero;"/>
                    <rect x="625.181" y="1825.68" width="6.721" height="72.398" style="fill-rule:nonzero;"/>
                </g>
            </g>
        </g>
    </g>
</svg>
