<?xml version="1.0" encoding="UTF-8" standalone="no"?>
<!DOCTYPE svg PUBLIC "-//W3C//DTD SVG 1.1//EN" "http://www.w3.org/Graphics/SVG/1.1/DTD/svg11.dtd">
<svg width="100%" height="100%" viewBox="0 0 1920 1080" version="1.1" xmlns="http://www.w3.org/2000/svg" xmlns:xlink="http://www.w3.org/1999/xlink" xml:space="preserve" xmlns:serif="http://www.serif.com/" style="fill-rule:evenodd;clip-rule:evenodd;stroke-linecap:round;stroke-linejoin:round;stroke-miterlimit:1;">
    <g transform="matrix(1,0,0,1,0,10)">
        <path d="M145.575,317.857L1774.42,317.857L1688.23,223.307" style="fill:none;stroke:rgb(45,45,45);stroke-width:5.5px;"/>
    </g>
    <g transform="matrix(0.934804,0,0,0.934804,1132.72,195.123)">
        <g transform="matrix(-0.732145,-0.403188,-0.403188,0.732145,1029.84,326.012)">
            <g transform="matrix(-1.12111,-0.617391,-0.617391,1.12111,2657.83,733.27)">
                <path d="M1605.17,454.673C1610.61,457.361 1617.21,455.124 1619.9,449.681C1622.59,444.238 1620.35,437.636 1614.91,434.947C1609.47,432.259 1602.86,434.496 1600.17,439.939C1597.49,445.382 1599.72,451.984 1605.17,454.673Z" style="fill:none;stroke:black;stroke-width:5.5px;stroke-linejoin:miter;stroke-miterlimit:10;"/>
                <path d="M1600.17,439.939C1472,383.637 1319.54,433.607 1250.72,558.583C1177.87,690.858 1226.12,857.389 1358.4,930.232C1490.68,1003.08 1657.21,954.824 1730.05,822.549C1802.89,690.273 1754.64,523.742 1622.37,450.899" style="fill:none;stroke:black;stroke-width:5.5px;stroke-miterlimit:1.5;stroke-dasharray:330,275,0,0;"/>
            </g>
        </g>
        <g transform="matrix(1.33202,0,0,1.33202,62.519,-98.0681)">
            <path d="M392.468,366.881C393.99,367.157 395.408,367.296 396.722,367.296L400.561,367.296C404.988,367.296 408.689,366.846 411.663,365.947C414.637,365.048 416.989,363.837 418.718,362.316C420.448,360.794 421.693,359.099 422.453,357.232C423.214,355.364 423.595,353.393 423.595,351.317C423.595,348.412 422.626,345.646 420.69,343.017C418.753,340.389 416.332,338.002 413.427,335.858C410.522,333.714 407.409,331.742 404.089,329.944C400.769,328.145 397.794,326.624 395.166,325.379C397.518,323.857 399.869,322.266 402.221,320.606C404.573,318.946 406.683,317.251 408.55,315.522C410.418,313.793 411.905,312.098 413.012,310.438C414.118,308.778 414.672,307.187 414.672,305.665C414.672,303.175 413.738,301.48 411.87,300.581C410.003,299.682 407.962,299.232 405.749,299.232C403.95,299.232 402.256,299.336 400.665,299.544C399.074,299.751 397.656,299.993 396.411,300.27C394.889,300.685 393.575,301.031 392.468,301.307L392.468,266.446C394.405,266.031 396.688,265.616 399.316,265.201C401.668,264.924 404.608,264.647 408.135,264.371C411.663,264.094 415.848,263.956 420.69,263.956C434.247,263.956 444.242,267.034 450.675,273.19C457.108,279.346 460.324,287.404 460.324,297.365C460.324,300.823 459.771,303.971 458.664,306.807C457.557,309.642 456.312,312.098 454.929,314.173C453.407,316.663 451.678,318.946 449.741,321.021C453.2,323.788 456.312,326.97 459.079,330.566C461.431,333.748 463.575,337.553 465.512,341.98C467.449,346.406 468.417,351.387 468.417,356.92C468.417,365.497 466.653,372.864 463.125,379.02C459.598,385.176 454.86,390.226 448.911,394.168C442.962,398.111 436.08,401.016 428.264,402.884C420.448,404.751 412.32,405.685 403.881,405.685L399.005,405.685C397.137,405.685 394.958,405.616 392.468,405.478L392.468,366.881Z" style="fill:rgb(238,88,67);fill-rule:nonzero;"/>
        </g>
        <g transform="matrix(3.46499,0,0,3.46499,-2422.97,-1515.93)">
            <path d="M758.792,583.056L759.094,577.306L766.869,577.306L766.985,575.081L759.21,575.081L759.472,570.081L768.172,570.081L768.291,567.806L759.591,567.806L759.835,563.156L757.435,563.156L757.191,567.806L752.666,567.806C753.204,566.606 753.721,565.331 754.163,564.056L751.792,563.506C750.683,567.006 748.929,570.431 746.792,572.556C747.4,572.881 748.39,573.556 748.844,573.956C749.774,572.906 750.669,571.581 751.522,570.081L757.072,570.081L756.81,575.081L749.685,575.081L749.569,577.306L756.694,577.306L756.392,583.056L746.492,583.056L746.374,585.306L768.574,585.306L768.692,583.056L758.792,583.056Z" style="fill-rule:nonzero;"/>
            <path d="M776.686,566.006C775.647,565.306 773.581,564.181 772.168,563.481L770.782,565.131C772.213,565.956 774.225,567.156 775.212,567.881L776.686,566.006ZM775.06,572.706C774.045,572.031 771.978,570.931 770.589,570.231L769.224,571.956C770.683,572.731 772.695,573.931 773.684,574.631L775.06,572.706ZM770.951,585.756C772.548,583.431 774.38,580.431 775.79,577.856L774.196,576.306C772.598,579.131 770.505,582.331 769.082,584.206L770.951,585.756ZM787.775,582.906L779.5,582.906L779.736,578.406L788.011,578.406L787.775,582.906ZM791.99,572.606L792.106,570.381L785.481,570.381L785.687,566.456C787.782,566.081 789.757,565.606 791.388,565.006L789.657,563.206C786.854,564.231 781.962,565.031 777.663,565.481C777.911,566.006 778.165,566.881 778.236,567.431C779.893,567.306 781.703,567.106 783.467,566.831L783.281,570.381L776.331,570.381L776.215,572.606L783.165,572.606L782.971,576.306L777.721,576.306L777.21,586.056L779.335,586.056L779.39,585.006L787.665,585.006L787.616,585.931L789.816,585.931L790.321,576.306L785.171,576.306L785.365,572.606L791.99,572.606Z" style="fill-rule:nonzero;"/>
            <path d="M796.994,580.156C795.994,580.156 794.787,578.856 794.937,576.006C795.096,572.956 797.9,569.081 802.388,568.356C802.024,570.531 801.431,572.781 800.703,574.731C799.353,578.556 798.069,580.156 796.994,580.156ZM803.394,584.931C809.488,584.081 813.002,580.481 813.273,575.306C813.546,570.106 809.988,565.956 804.038,565.956C797.838,565.956 792.713,570.731 792.425,576.231C792.209,580.356 794.313,583.131 796.763,583.131C799.238,583.131 801.436,580.306 803.201,575.256C803.998,572.931 804.574,570.531 805.04,568.306C808.815,568.781 810.817,571.606 810.629,575.206C810.419,579.206 807.473,581.506 804.26,582.231C803.653,582.381 802.921,582.506 802.042,582.581L803.394,584.931Z" style="fill-rule:nonzero;"/>
            <path d="M825.107,573.706C824.143,573.981 823.18,574.231 822.242,574.481L822.468,570.156L825.193,570.156L825.306,568.006L822.581,568.006L822.835,563.156L820.535,563.156L820.281,568.006L817.006,568.006L816.893,570.156L820.168,570.156L819.908,575.131C818.513,575.506 817.248,575.781 816.235,576.031L816.717,578.281C817.656,578.031 818.695,577.756 819.787,577.431L819.47,583.481C819.45,583.856 819.32,583.956 818.97,583.956C818.669,583.981 817.644,583.981 816.596,583.931C816.84,584.531 817.115,585.481 817.16,586.056C818.834,586.081 819.913,586.006 820.681,585.656C821.424,585.306 821.707,584.681 821.77,583.481L822.122,576.756L825.295,575.856L825.107,573.706ZM835.837,576.956L835.727,579.056L828.377,579.056L828.487,576.956L835.837,576.956ZM828.167,583.056L828.281,580.881L835.631,580.881L835.517,583.056L828.167,583.056ZM825.81,586.056L828.01,586.056L828.069,584.931L835.419,584.931L835.366,585.931L837.666,585.931L838.238,575.031L826.388,575.031L825.81,586.056ZM830.742,571.131C829.217,571.131 828.925,570.981 828.971,570.106L829.049,568.606C832.205,568.031 835.774,567.181 838.328,566.156L836.692,564.456C834.874,565.281 831.929,566.131 829.148,566.731L829.332,563.206L827.032,563.206L826.671,570.106C826.542,572.556 827.332,573.231 830.457,573.231L835.832,573.231C838.457,573.231 839.203,572.356 839.68,568.981C839.088,568.831 838.13,568.506 837.624,568.131C837.316,570.681 837.092,571.131 835.792,571.131L830.742,571.131Z" style="fill-rule:nonzero;"/>
            <path d="M857.625,570.031L849.875,570.031L849.923,569.106L857.673,569.106L857.625,570.031ZM857.516,572.106L849.766,572.106L849.817,571.131L857.567,571.131L857.516,572.106ZM857.407,574.181L849.657,574.181L849.708,573.206L857.458,573.206L857.407,574.181ZM847.809,567.956L847.423,575.306L859.623,575.306L860.009,567.956L854.259,567.956C854.401,567.631 854.569,567.281 854.739,566.906L862.089,566.906L862.174,565.281L858.174,565.281C858.626,564.756 859.083,564.156 859.517,563.506L857.364,563.081C857.031,563.706 856.484,564.606 855.999,565.281L852.149,565.281C851.909,564.606 851.43,563.731 850.963,563.106L849.065,563.531C849.388,564.056 849.729,564.706 849.949,565.281L845.999,565.281L845.914,566.906L852.564,566.906C852.47,567.256 852.376,567.631 852.259,567.956L847.809,567.956ZM845.381,566.581C844.754,565.656 843.321,564.381 842.115,563.531L840.524,564.806C841.726,565.706 843.081,567.056 843.681,568.006L845.381,566.581ZM856.179,578.056C858.081,578.031 859.933,577.981 861.236,577.931C861.365,577.381 861.708,576.556 861.956,576.106C858.646,576.306 852.192,576.381 849.272,576.281C847.076,576.206 845.408,575.606 844.581,574.206L844.83,569.456L839.605,569.456L839.512,571.231L842.637,571.231L842.464,574.531C841.329,575.206 840.093,575.881 839.068,576.356L839.819,578.256C841.19,577.381 842.457,576.581 843.698,575.781C844.87,577.281 846.637,577.906 849.207,578.006C850.404,578.056 852.129,578.056 853.954,578.056L853.886,579.356L838.986,579.356L838.892,581.156L844.392,581.156L843.06,582.231C844.267,583.056 845.725,584.331 846.381,585.181L848.157,583.731C847.497,582.956 846.226,581.931 845.092,581.156L853.792,581.156L853.659,583.681C853.642,584.006 853.513,584.081 853.112,584.106C852.736,584.131 851.336,584.131 849.913,584.081C850.185,584.631 850.49,585.481 850.535,586.056C852.509,586.081 853.81,586.056 854.676,585.756C855.568,585.431 855.823,584.856 855.882,583.731L856.017,581.156L861.417,581.156L861.511,579.356L856.111,579.356L856.179,578.056Z" style="fill-rule:nonzero;"/>
            <path d="M765.691,607.939C764.544,609.789 762.674,611.614 760.787,612.789C761.345,613.114 762.236,613.764 762.665,614.164C764.486,612.814 766.546,610.714 767.882,608.589L765.691,607.939ZM766.491,603.164L775.991,603.164L775.889,605.114L766.389,605.114L766.491,603.164ZM766.68,599.564L776.18,599.564L776.081,601.464L766.581,601.464L766.68,599.564ZM778.196,606.889L778.674,597.764L772.124,597.764C772.384,597.114 772.647,596.389 772.885,595.664L780.71,595.664L780.821,593.539L760.446,593.539L760.067,600.764C759.862,604.689 759.4,610.164 757.048,614.014C757.612,614.214 758.606,614.814 759.038,615.164C761.475,611.114 762.147,604.964 762.366,600.789L762.635,595.664L770.135,595.664C770,596.314 769.811,597.064 769.599,597.764L764.499,597.764L764.021,606.889L769.896,606.889L769.586,612.814C769.57,613.114 769.465,613.214 769.115,613.214C768.74,613.214 767.49,613.214 766.191,613.189C766.436,613.764 766.715,614.639 766.784,615.239C768.609,615.239 769.859,615.239 770.702,614.889C771.543,614.589 771.775,613.964 771.833,612.864L772.146,606.889L778.196,606.889ZM773.789,608.939C775.51,610.439 777.448,612.589 778.273,614.014L780.238,612.764C779.339,611.314 777.322,609.264 775.646,607.839L773.789,608.939Z" style="fill-rule:nonzero;"/>
            <path d="M787.941,607.939C787.075,608.239 786.161,608.514 785.297,608.789L785.593,603.139L787.968,603.139L788.08,600.989L785.705,600.989L785.966,596.014L788.741,596.014L788.854,593.864L780.904,593.864L780.791,596.014L783.741,596.014L783.48,600.989L780.78,600.989L780.668,603.139L783.368,603.139L783.035,609.489C781.815,609.864 780.7,610.164 779.787,610.414L780.212,612.789C782.5,612.064 785.451,611.089 788.226,610.139L787.941,607.939ZM791.735,599.939L795.01,599.939L794.866,602.689L791.591,602.689L791.735,599.939ZM791.974,595.389L795.249,595.389L795.107,598.089L791.832,598.089L791.974,595.389ZM800.282,598.089L797.082,598.089L797.224,595.389L800.424,595.389L800.282,598.089ZM800.041,602.689L796.841,602.689L796.985,599.939L800.185,599.939L800.041,602.689ZM796.537,612.314L796.693,609.339L802.243,609.339L802.353,607.239L796.803,607.239L796.938,604.664L802.163,604.664L802.752,593.414L789.952,593.414L789.363,604.664L794.563,604.664L794.428,607.239L789.003,607.239L788.893,609.339L794.318,609.339L794.162,612.314L786.912,612.314L786.801,614.439L802.776,614.439L802.887,612.314L796.537,612.314Z" style="fill-rule:nonzero;"/>
            <path d="M810.744,609.314C809.744,609.314 808.537,608.014 808.687,605.164C808.846,602.114 811.65,598.239 816.138,597.514C815.774,599.689 815.181,601.939 814.453,603.889C813.103,607.714 811.819,609.314 810.744,609.314ZM817.144,614.089C823.238,613.239 826.752,609.639 827.023,604.464C827.296,599.264 823.738,595.114 817.788,595.114C811.588,595.114 806.463,599.889 806.175,605.389C805.959,609.514 808.063,612.289 810.513,612.289C812.988,612.289 815.186,609.464 816.951,604.414C817.748,602.089 818.324,599.689 818.79,597.464C822.565,597.939 824.567,600.764 824.379,604.364C824.169,608.364 821.223,610.664 818.01,611.389C817.403,611.539 816.671,611.664 815.792,611.739L817.144,614.089Z" style="fill-rule:nonzero;"/>
            <path d="M835.823,603.039L833.135,603.764L833.368,599.314L835.818,599.314L835.931,597.164L833.481,597.164L833.736,592.289L831.461,592.289L831.206,597.164L828.356,597.164L828.243,599.314L831.093,599.314L830.827,604.389C829.61,604.714 828.471,604.989 827.56,605.189L828.042,607.439L830.705,606.714L830.392,612.689C830.375,613.014 830.27,613.114 829.97,613.114C829.719,613.139 828.819,613.139 827.971,613.089C828.215,613.689 828.44,614.639 828.485,615.214C829.984,615.239 830.964,615.139 831.682,614.789C832.351,614.439 832.607,613.839 832.667,612.689L833.016,606.039C834.004,605.789 834.995,605.489 836.01,605.189L835.823,603.039ZM842.553,595.789L842.166,603.164L839.241,603.164L839.628,595.789L842.553,595.789ZM847.241,603.164L844.341,603.164L844.728,595.789L847.628,595.789L847.241,603.164ZM840.707,612.414C839.032,612.414 838.771,612.139 838.848,610.664L839.126,605.364L847.126,605.364L847.042,606.964L849.492,606.964L850.197,593.514L837.372,593.514L836.473,610.664C836.306,613.864 837.24,614.639 840.39,614.639L846.365,614.639C849.265,614.639 850.082,613.364 850.646,609.764C849.953,609.614 848.973,609.239 848.443,608.864C848.067,611.739 847.757,612.414 846.307,612.414L840.707,612.414Z" style="fill-rule:nonzero;"/>
            <path d="M857.714,602.739L855.403,603.414L855.62,599.289L858.12,599.289L858.232,597.139L855.732,597.139L855.985,592.314L853.86,592.314L853.607,597.139L850.707,597.139L850.595,599.289L853.495,599.289L853.246,604.039C852.002,604.389 850.86,604.714 849.948,604.939L850.356,607.189C851.195,606.914 852.134,606.639 853.125,606.339L852.794,612.664C852.775,613.014 852.646,613.089 852.321,613.089C852.045,613.114 851.12,613.114 850.121,613.089C850.39,613.689 850.612,614.689 850.634,615.239C852.234,615.239 853.213,615.164 853.906,614.814C854.601,614.439 854.858,613.814 854.919,612.664L855.284,605.689C856.149,605.414 857.038,605.139 857.902,604.864L857.714,602.739ZM870.682,595.239L870.565,597.464L861.215,597.464L861.332,595.239L870.682,595.239ZM866.966,612.714L867.076,610.614L871.626,610.614L871.718,608.864L867.168,608.864L867.273,606.864L870.682,606.689C870.962,607.064 871.194,607.414 871.377,607.739L872.974,606.839C872.283,605.714 870.794,604.064 869.531,602.889L868.014,603.689C868.467,604.114 868.942,604.589 869.391,605.089L864.633,605.239C865.123,604.464 865.644,603.589 866.14,602.714L872.915,602.714L873.012,600.864L861.037,600.864L861.116,599.364L872.691,599.364L873.008,593.314L859.308,593.314L858.921,600.689C858.717,604.589 858.26,609.964 855.714,613.714C856.175,613.964 857.04,614.639 857.394,615.039C859.724,611.614 860.557,606.689 860.915,602.714L863.915,602.714C863.544,603.589 863.096,604.514 862.655,605.289L860.702,605.339L860.807,607.164L865.217,606.964L865.118,608.864L860.743,608.864L860.651,610.614L865.026,610.614L864.916,612.714L859.316,612.714L859.22,614.539L872.695,614.539L872.791,612.714L866.966,612.714Z" style="fill-rule:nonzero;"/>
        </g>
    </g>
    <g transform="matrix(0.934804,0,0,0.934804,587.52,195.123)">
        <g transform="matrix(-0.732145,-0.403188,-0.403188,0.732145,1029.84,326.012)">
            <g transform="matrix(-1.12111,-0.617391,-0.617391,1.12111,2046.59,396.668)">
                <path d="M1059.96,454.673C1065.41,457.361 1072.01,455.124 1074.7,449.681C1077.39,444.238 1075.15,437.636 1069.71,434.947C1064.26,432.259 1057.66,434.496 1054.97,439.939C1052.29,445.382 1054.52,451.984 1059.96,454.673Z" style="fill:none;stroke:black;stroke-width:5.5px;stroke-linejoin:miter;stroke-miterlimit:10;"/>
                <path d="M1054.97,439.939C926.793,383.637 774.338,433.607 705.515,558.583C632.671,690.858 680.923,857.389 813.198,930.232C945.474,1003.08 1112.01,954.824 1184.85,822.549C1257.69,690.273 1209.44,523.742 1077.16,450.899" style="fill:none;stroke:black;stroke-width:5.5px;stroke-miterlimit:1.5;stroke-dasharray:330,275,0,0;"/>
            </g>
        </g>
        <g transform="matrix(1.33202,0,0,1.33202,62.519,-98.0681)">
            <path d="M417.992,337.622C420.897,332.088 422.765,327.938 423.595,325.171C424.425,322.404 424.84,319.776 424.84,317.286C424.84,312.859 423.387,309.435 420.482,307.014C417.577,304.593 413.358,303.383 407.824,303.383C406.717,303.383 405.68,303.417 404.711,303.486C403.743,303.556 402.844,303.659 402.014,303.798C401.045,303.936 400.146,304.005 399.316,304.005L399.316,265.616C401.253,265.201 402.982,264.855 404.504,264.578C406.026,264.301 407.513,264.094 408.965,263.956C410.418,263.817 411.94,263.714 413.53,263.644C415.121,263.575 416.954,263.541 419.03,263.541C425.67,263.541 432.206,264.267 438.639,265.719C445.072,267.172 450.848,269.558 455.966,272.879C461.085,276.199 465.235,280.626 468.417,286.159C471.599,291.693 473.19,298.472 473.19,306.495C473.19,310.23 472.775,313.931 471.945,317.597C471.115,321.263 469.835,325.24 468.106,329.529C466.376,333.817 464.163,338.625 461.465,343.951C458.768,349.277 455.621,355.468 452.024,362.523L449.326,367.711L475.472,367.711L463.644,404.025L383.13,404.025L417.992,337.622Z" style="fill:rgb(230,156,50);fill-rule:nonzero;"/>
        </g>
        <g transform="matrix(3.46499,0,0,3.46499,-2402.51,-1515.93)">
            <path d="M736.74,573.081L736.606,575.631L759.356,575.631L759.49,573.081L736.74,573.081Z" style="fill-rule:nonzero;"/>
            <path d="M765.218,569.681L767.543,569.681L767.657,567.506L773.957,567.506L773.843,569.681L776.168,569.681L776.282,567.506L781.782,567.506L781.895,565.356L776.395,565.356L776.511,563.131L774.186,563.131L774.07,565.356L767.77,565.356L767.886,563.131L765.561,563.131L765.445,565.356L760.045,565.356L759.932,567.506L765.332,567.506L765.218,569.681ZM762.104,572.806L779.154,572.806L779.266,570.681L762.216,570.681L762.104,572.806ZM781.505,577.556L781.618,575.406L759.268,575.406L759.155,577.556L765.63,577.556C764.885,579.381 763.821,581.556 762.888,583.131L759.732,583.256L759.832,585.631C764.295,585.381 771.065,585.006 777.414,584.556C777.854,585.206 778.223,585.806 778.471,586.331L780.712,585.056C779.62,583.006 777.045,580.131 774.8,578.131L772.768,579.231C773.817,580.206 774.883,581.331 775.846,582.506C772.287,582.681 768.653,582.856 765.47,583.006C766.454,581.406 767.56,579.381 768.505,577.556L781.505,577.556Z" style="fill-rule:nonzero;"/>
            <path d="M781.74,573.081L781.606,575.631L804.356,575.631L804.49,573.081L781.74,573.081Z" style="fill-rule:nonzero;"/>
            <path d="M826.573,570.056L826.694,567.756L817.544,567.756L817.764,563.081L815.313,563.106L815.094,567.756L805.069,567.756L804.948,570.056L814.998,570.056L814.712,576.006C811.298,577.706 807.373,579.131 803.576,580.031C803.947,580.581 804.519,581.581 804.738,582.181C808.084,581.306 811.472,580.106 814.599,578.631L814.395,583.006C814.394,583.506 814.211,583.656 813.659,583.681C813.133,583.706 811.307,583.731 809.536,583.656C809.875,584.331 810.219,585.406 810.332,586.106C812.707,586.106 814.336,586.031 815.382,585.631C816.377,585.256 816.79,584.531 816.871,582.981L817.115,577.381C819.867,575.906 822.38,574.231 824.399,572.431L822.197,571.031C820.907,572.281 819.218,573.506 817.232,574.656L817.448,570.056L826.573,570.056Z" style="fill-rule:nonzero;"/>
            <path d="M834.326,564.281C834.267,565.881 833.919,567.756 833.473,569.581C832.067,569.706 830.737,569.806 829.935,569.831C829.109,569.856 828.383,569.881 827.56,569.831L827.644,572.531C828.35,572.406 829.483,572.256 830.137,572.181C830.691,572.106 831.696,572.006 832.828,571.881C831.777,575.231 829.723,580.556 827.1,583.856L829.622,584.881C832.254,580.931 834.301,575.256 835.417,571.606C836.346,571.531 837.174,571.481 837.674,571.481C839.249,571.481 840.18,571.831 840.069,573.956C839.934,576.531 839.422,579.631 838.59,581.181C838.091,582.131 837.379,582.356 836.504,582.356C835.829,582.356 834.466,582.131 833.481,581.831L833.77,584.431C834.56,584.631 835.75,584.806 836.675,584.806C838.425,584.806 839.725,584.331 840.613,582.656C841.775,580.531 842.355,576.606 842.508,573.681C842.689,570.231 840.917,569.231 838.517,569.231C837.942,569.231 837.064,569.281 836.035,569.356C836.319,568.231 836.607,567.031 836.796,566.281C836.925,565.731 837.083,565.106 837.235,564.581L834.326,564.281ZM843.253,568.056C844.892,570.181 846.535,574.606 847.097,577.231L849.609,576.056C848.931,573.731 847.047,569.131 845.631,567.056L843.253,568.056Z" style="fill-rule:nonzero;"/>
            <path d="M856.173,566.731C858.047,567.231 863.438,568.356 865.846,568.681L866.548,566.256C864.384,566.031 859.111,565.056 856.922,564.356L856.173,566.731ZM856.451,569.056L853.819,568.706C853.522,571.506 852.633,576.556 852.036,578.881L854.307,579.431C854.529,579.006 854.777,578.581 855.202,578.106C856.98,576.131 859.589,575.006 862.664,575.006C865.039,575.006 866.672,576.281 866.577,578.106C866.405,581.381 862.423,583.431 854.824,582.456L855.464,585.031C865.072,585.831 869.039,582.631 869.274,578.156C869.427,575.231 867.007,572.756 862.982,572.756C860.207,572.756 857.562,573.606 855.165,575.456C855.445,573.931 856.045,570.606 856.451,569.056Z" style="fill-rule:nonzero;"/>
            <path d="M759.901,597.264C759.51,596.139 758.572,594.464 757.56,593.264L755.967,594.089C756.903,595.314 757.812,597.039 758.202,598.189L759.901,597.264ZM742.334,598.539L740.109,598.539L740.275,595.364L742.5,595.364L742.334,598.539ZM739.556,609.089L739.742,605.539L741.967,605.539L741.803,608.664L739.556,609.089ZM742.068,603.614L739.843,603.614L740.009,600.439L742.234,600.439L742.068,603.614ZM753.287,594.664L750.387,594.664L750.509,592.339L748.509,592.339L748.387,594.664L745.637,594.664L745.709,593.289L737.359,593.289L737.25,595.364L738.325,595.364L737.588,609.439C737.032,609.539 736.502,609.639 736.023,609.714L736.312,611.839C737.904,611.514 739.775,611.114 741.696,610.714L741.459,615.239L743.409,615.239L744.45,595.364L745.55,595.364L745.494,596.439L753.194,596.439L753.287,594.664ZM747.117,610.314L747.218,608.389L750.293,608.389L750.192,610.314L747.117,610.314ZM750.472,604.964L750.375,606.814L747.3,606.814L747.397,604.964L750.472,604.964ZM757.147,603.064C756.758,604.289 756.296,605.464 755.763,606.564C755.685,605.189 755.667,603.639 755.654,601.964L759.579,601.964L759.676,600.114L755.676,600.114C755.703,597.689 755.817,595.039 755.96,592.314L753.91,592.314C753.79,595.089 753.727,597.714 753.676,600.114L751.251,600.114C751.647,599.239 752.064,597.964 752.524,596.814L750.719,596.439C750.518,597.414 750.092,598.864 749.793,599.789L751.026,600.114L747.051,600.114L748.292,599.814C748.291,598.889 748.038,597.514 747.691,596.489L746.123,596.839C746.421,597.839 746.623,599.214 746.626,600.114L744.676,600.114L744.579,601.964L753.679,601.964C753.652,604.864 753.744,607.414 753.985,609.489C753.367,610.314 752.677,611.064 751.941,611.764L752.385,603.289L745.66,603.289L745.125,613.489L746.95,613.489L747.03,611.964L751.73,611.964C750.996,612.614 750.216,613.189 749.365,613.689C749.77,614.064 750.427,614.889 750.634,615.239C752.007,614.314 753.265,613.214 754.382,611.939C754.848,614.014 755.613,615.164 756.761,615.189C757.61,615.214 758.66,614.264 759.367,610.314C759.054,610.089 758.234,609.514 757.909,609.039C757.668,611.239 757.353,612.489 757.003,612.489C756.553,612.489 756.23,611.489 756.019,609.789C757.24,607.964 758.251,605.839 758.999,603.489L757.147,603.064Z" style="fill-rule:nonzero;"/>
            <path d="M774.186,598.489C773.82,599.289 773.372,600.189 772.962,600.864L767.687,600.864L768.42,600.714C768.276,600.114 767.873,599.214 767.461,598.489L774.186,598.489ZM781.138,609.439L781.24,607.489L771.39,607.489L771.47,605.964L779.145,605.964L779.236,604.214L771.561,604.214L771.64,602.714L780.49,602.714L780.587,600.864L775.287,600.864C775.749,600.164 776.292,599.339 776.811,598.489L781.636,598.489L781.739,596.539L778.139,596.539C778.837,595.614 779.653,594.364 780.392,593.139L778.023,592.539C777.589,593.664 776.732,595.239 776.079,596.239L777.014,596.539L774.314,596.539L774.538,592.264L772.338,592.264L772.114,596.539L769.639,596.539L769.863,592.264L767.688,592.264L767.464,596.539L764.714,596.539L766.014,596.064C765.715,595.089 764.92,593.564 764.201,592.489L762.141,593.164C762.787,594.189 763.465,595.564 763.789,596.539L760.089,596.539L759.986,598.489L765.661,598.489L765.056,598.589C765.421,599.264 765.799,600.164 765.987,600.864L760.862,600.864L760.765,602.714L769.365,602.714L769.286,604.214L761.911,604.214L761.82,605.964L769.195,605.964L769.115,607.489L759.415,607.489L759.313,609.439L767.038,609.439C764.756,610.989 761.438,612.289 758.43,612.914C758.929,613.414 759.533,614.289 759.852,614.889C763.023,614.014 766.483,612.389 768.963,610.389L768.709,615.239L770.984,615.239L771.247,610.214C773.484,612.364 776.747,614.039 779.951,614.914C780.333,614.289 781.058,613.339 781.609,612.839C778.59,612.264 775.431,610.989 773.313,609.439L781.138,609.439Z" style="fill-rule:nonzero;"/>
            <path d="M784.401,610.614L784.691,605.089L789.341,605.089L789.051,610.614L784.401,610.614ZM789.696,598.314L789.447,603.064L784.797,603.064L785.046,598.314L789.696,598.314ZM796.883,596.164C797.341,595.064 797.726,593.914 798.087,592.764L795.864,592.239C794.941,595.539 793.442,598.864 791.679,601.014L791.927,596.289L787.927,596.289C788.382,595.239 788.926,593.914 789.417,592.664L786.914,592.239C786.701,593.439 786.24,595.089 785.827,596.289L783.027,596.289L782.069,614.564L784.194,614.564L784.294,612.664L791.069,612.664L791.67,601.189C792.228,601.514 793.07,602.139 793.427,602.489C794.287,601.339 795.138,599.889 795.922,598.289L801.822,598.289C801.003,607.714 800.48,611.489 799.637,612.314C799.344,612.664 799.065,612.739 798.565,612.739C797.94,612.739 796.491,612.714 794.898,612.589C795.288,613.239 795.512,614.214 795.53,614.839C796.951,614.914 798.424,614.939 799.305,614.839C800.261,614.714 800.873,614.489 801.541,613.664C802.607,612.414 803.11,608.539 804.051,597.264C804.091,596.964 804.133,596.164 804.133,596.164L796.883,596.164ZM799.492,607.439C798.82,605.964 797.244,603.589 796.01,601.864L794.131,602.889C795.362,604.689 796.858,607.139 797.478,608.664L799.492,607.439Z" style="fill-rule:nonzero;"/>
            <path d="M826.877,598.664L826.994,596.439L816.944,596.439L817.167,592.189L814.792,592.189L814.569,596.439L804.744,596.439L804.627,598.664L812.027,598.664C811.461,604.214 810.467,610.314 803.503,613.439C804.104,613.889 804.76,614.739 805.077,615.364C810.232,612.889 812.466,608.889 813.593,604.564L821.193,604.564C820.571,609.764 819.972,612.114 819.267,612.689C818.928,612.964 818.6,613.014 818.05,613.014C817.35,613.014 815.602,612.989 813.884,612.839C814.3,613.489 814.576,614.439 814.565,615.114C816.236,615.189 817.885,615.214 818.789,615.139C819.818,615.064 820.502,614.889 821.189,614.189C822.217,613.164 822.888,610.389 823.702,603.439C823.77,603.089 823.833,602.364 823.833,602.364L814.083,602.364C814.298,601.139 814.463,599.889 814.602,598.664L826.877,598.664Z" style="fill-rule:nonzero;"/>
            <path d="M840.686,603.739L840.466,607.939L835.041,607.939L835.261,603.739L840.686,603.739ZM842.507,610.014L842.944,601.689L833.244,601.689L832.716,611.764L834.841,611.764L834.932,610.014L842.507,610.014ZM848.54,596.514L837.715,596.514C838.4,595.364 839.122,593.989 839.739,592.714L836.814,592.239C836.447,593.514 835.761,595.164 835.14,596.514L828.315,596.514L827.335,615.214L829.635,615.214L830.496,598.789L846.096,598.789L845.386,612.339C845.363,612.764 845.207,612.889 844.705,612.914C844.229,612.939 842.504,612.939 840.858,612.864C841.174,613.514 841.468,614.589 841.534,615.239C843.784,615.239 845.336,615.189 846.33,614.839C847.276,614.439 847.639,613.714 847.709,612.364L848.54,596.514Z" style="fill-rule:nonzero;"/>
            <path d="M849.163,606.089L851.386,608.514C851.841,607.939 852.434,607.114 853.021,606.414C854.248,604.939 856.31,602.339 857.457,600.964C858.284,599.964 858.741,599.839 859.686,600.889C860.769,602.164 862.519,604.539 863.999,606.364C865.549,608.264 867.621,610.714 869.38,612.439L871.476,610.139C869.307,608.114 867.135,605.664 865.698,603.989C864.26,602.339 862.417,599.814 860.948,598.264C859.337,596.564 857.852,596.764 856.206,598.589C854.64,600.339 852.473,603.039 851.181,604.314C850.443,605.039 849.866,605.564 849.163,606.089Z" style="fill-rule:nonzero;"/>
        </g>
    </g>
    <g transform="matrix(0.934804,0,0,0.934804,61.5291,195.123)">
        <g transform="matrix(-0.732145,-0.403188,-0.403188,0.732145,1029.84,326.012)">
            <g transform="matrix(-1.12111,-0.617391,-0.617391,1.12111,1456.9,71.926)">
                <path d="M533.974,454.673C539.418,457.361 546.02,455.124 548.708,449.681C551.397,444.238 549.16,437.636 543.716,434.947C538.273,432.259 531.671,434.496 528.983,439.939C526.294,445.382 528.531,451.984 533.974,454.673Z" style="fill:none;stroke:black;stroke-width:5.5px;stroke-linejoin:miter;stroke-miterlimit:10;"/>
                <path d="M528.983,439.939C400.803,383.637 248.347,433.607 179.524,558.583C106.681,690.858 154.932,857.389 287.208,930.232C419.483,1003.08 586.014,954.824 658.858,822.549C731.701,690.273 683.45,523.742 551.174,450.899" style="fill:none;stroke:black;stroke-width:5.5px;stroke-miterlimit:1.5;stroke-dasharray:330,275,0,0;"/>
            </g>
        </g>
        <g transform="matrix(1.33202,0,0,1.33202,62.519,-98.0681)">
            <path d="M401.806,319.568L383.13,297.78L413.427,265.616L446.628,265.616L446.628,404.025L401.806,404.025L401.806,319.568Z" style="fill:rgb(231,215,74);fill-rule:nonzero;"/>
        </g>
        <g transform="matrix(3.46499,0,0,3.46499,-2402.51,-1515.93)">
            <path d="M750.729,569.006C751.284,568.431 751.819,567.756 752.286,566.956L754.036,566.956L753.969,568.231C753.956,568.481 753.943,568.731 753.904,569.006L750.729,569.006ZM759.883,573.681C759.233,573.206 756.569,571.581 755.57,571.081L755.657,570.856L760.107,570.856L760.204,569.006L756.104,569.006C756.142,568.756 756.155,568.506 756.168,568.256L756.236,566.956L759.686,566.956L759.783,565.106L753.308,565.106C753.537,564.556 753.764,564.031 753.969,563.456L751.917,563.031C751.295,564.881 750.224,566.706 748.909,567.956C749.373,568.156 750.194,568.706 750.629,569.006L748.929,569.006L748.832,570.856L753.357,570.856C752.708,572.256 751.332,573.706 748.373,574.831C748.879,575.206 749.491,575.931 749.767,576.381C752.275,575.281 753.819,573.956 754.765,572.606C755.922,573.431 757.485,574.606 758.179,575.206L759.883,573.681ZM765.253,577.606L765.151,579.556L754.151,579.556L754.253,577.606L765.253,577.606ZM753.954,583.306L754.059,581.306L765.059,581.306L764.954,583.306L753.954,583.306ZM751.51,586.056L753.81,586.056L753.856,585.181L764.856,585.181L764.811,586.031L767.186,586.031L767.725,575.756L752.05,575.756L751.51,586.056ZM767.724,571.956L763.174,571.956L763.427,567.131L767.977,567.131L767.724,571.956ZM761.359,565.081L760.891,574.006L769.916,574.006L770.384,565.081L761.359,565.081Z" style="fill-rule:nonzero;"/>
            <path d="M773.86,574.606C773.795,575.856 774.742,576.856 775.992,576.856C777.217,576.856 778.27,575.856 778.335,574.606C778.401,573.356 777.453,572.356 776.228,572.356C774.978,572.356 773.926,573.356 773.86,574.606Z" style="fill-rule:nonzero;"/>
            <path d="M796.822,574.856L794.597,574.856L794.759,571.756L796.984,571.756L796.822,574.856ZM798.734,571.756L800.984,571.756L800.822,574.856L798.572,574.856L798.734,571.756ZM792.897,574.856L790.722,574.856L790.884,571.756L793.059,571.756L792.897,574.856ZM794.734,569.856L789.059,569.856L788.697,576.756L802.747,576.756L803.109,569.856L797.034,569.856L797.143,567.781L803.743,567.781L803.853,565.681L797.253,565.681L797.386,563.131L795.086,563.131L794.953,565.681L788.553,565.681L788.443,567.781L794.843,567.781L794.734,569.856ZM792.55,578.131C793.987,578.856 795.724,580.056 796.505,580.906L797.981,579.456C797.154,578.531 795.361,577.456 793.945,576.806L792.55,578.131ZM786.386,563.131C785.246,564.856 782.987,566.931 781.044,568.231C781.398,568.631 781.955,569.456 782.206,569.906C784.409,568.431 786.832,566.081 788.444,563.931L786.386,563.131ZM786.665,568.306C785.133,570.831 782.726,573.356 780.442,574.956C780.79,575.456 781.405,576.606 781.605,577.081C782.464,576.431 783.331,575.631 784.177,574.756L783.585,586.056L785.76,586.056L786.488,572.156C787.292,571.131 788.047,570.081 788.677,569.031L786.665,568.306ZM787.923,585.331C789.367,584.006 790.13,581.856 790.635,579.856L788.74,579.281C788.294,581.106 787.52,583.006 786.261,584.131L787.923,585.331ZM794.25,583.856C793.475,583.856 793.355,583.756 793.386,583.181L793.589,579.306L791.464,579.306L791.259,583.206C791.156,585.181 791.651,585.756 793.901,585.756L796.951,585.756C798.676,585.756 799.311,585.081 799.681,582.306C799.088,582.181 798.229,581.881 797.822,581.531C797.615,583.581 797.5,583.856 796.825,583.856L794.25,583.856ZM798.714,579.781C800.027,581.431 801.234,583.681 801.578,585.231L803.599,584.356C803.232,582.781 801.946,580.606 800.554,579.006L798.714,579.781Z" style="fill-rule:nonzero;"/>
            <path d="M806.36,574.606C806.295,575.856 807.242,576.856 808.492,576.856C809.717,576.856 810.77,575.856 810.835,574.606C810.901,573.356 809.953,572.356 808.728,572.356C807.478,572.356 806.426,573.356 806.36,574.606Z" style="fill-rule:nonzero;"/>
            <path d="M818.98,563.256C817.59,566.881 815.449,570.531 813.175,572.881C813.548,573.406 814.156,574.681 814.352,575.231C815.017,574.481 815.658,573.681 816.331,572.781L815.636,586.031L817.861,586.031L818.757,568.931C819.644,567.281 820.483,565.581 821.122,563.881L818.98,563.256ZM836.371,570.106L836.486,567.906L829.336,567.906L829.58,563.256L827.305,563.256L827.061,567.906L820.361,567.906L820.246,570.106L825.721,570.106C824.031,574.206 821.367,578.281 818.602,580.481C819.081,580.881 819.839,581.681 820.159,582.256C822.732,579.906 825.105,576.131 826.845,572.031L826.451,579.556L822.726,579.556L822.616,581.656L826.341,581.656L826.116,585.931L828.391,585.931L828.616,581.656L832.316,581.656L832.426,579.556L828.726,579.556L829.128,571.881C830.389,575.956 832.335,579.856 834.563,582.181C835.021,581.556 835.838,580.756 836.435,580.331C833.974,578.156 831.735,574.131 830.521,570.106L836.371,570.106Z" style="fill-rule:nonzero;"/>
            <path d="M842.619,580.156C841.619,580.156 840.412,578.856 840.562,576.006C840.721,572.956 843.525,569.081 848.013,568.356C847.649,570.531 847.056,572.781 846.328,574.731C844.978,578.556 843.694,580.156 842.619,580.156ZM849.019,584.931C855.113,584.081 858.627,580.481 858.898,575.306C859.171,570.106 855.613,565.956 849.663,565.956C843.463,565.956 838.338,570.731 838.05,576.231C837.834,580.356 839.938,583.131 842.388,583.131C844.863,583.131 847.061,580.306 848.826,575.256C849.623,572.931 850.199,570.531 850.665,568.306C854.44,568.781 856.442,571.606 856.254,575.206C856.044,579.206 853.098,581.506 849.885,582.231C849.278,582.381 848.546,582.506 847.667,582.581L849.019,584.931Z" style="fill-rule:nonzero;"/>
            <path d="M748.193,593.114L741.968,593.114L741.873,594.939L748.098,594.939L748.193,593.114ZM748.72,596.414L740.62,596.414L740.523,598.264L748.623,598.264L748.72,596.414ZM747.892,599.814L741.467,599.814L741.373,601.614L747.798,601.614L747.892,599.814ZM741.197,604.964L747.622,604.964L747.718,603.139L741.293,603.139L741.197,604.964ZM752.584,601.389L752.493,603.139L759.468,603.139L759.559,601.389L756.909,601.389L757.018,599.314L759.393,599.314L759.485,597.564L757.11,597.564L757.211,595.639L755.361,595.639L755.26,597.564L752.985,597.564L752.893,599.314L755.168,599.314L755.059,601.389L752.584,601.389ZM757.169,606.464L757.009,609.514L754.159,609.514L754.319,606.464L757.169,606.464ZM758.643,611.239L758.983,604.764L752.708,604.764L752.32,612.164L754.02,612.164L754.068,611.239L758.643,611.239ZM745.354,611.989L742.629,611.989L742.818,608.389L745.543,608.389L745.354,611.989ZM763.035,593.264L750.01,593.264L749.536,602.314C749.353,605.814 748.963,610.389 747.139,613.714L747.516,606.514L741.066,606.514L740.626,614.914L742.476,614.914L742.533,613.814L747.083,613.814L746.919,614.089C747.406,614.339 748.322,614.989 748.677,615.364C750.866,611.764 751.433,606.189 751.636,602.314L752.005,595.264L760.78,595.264L759.879,612.464C759.859,612.839 759.729,612.939 759.354,612.939C759.003,612.964 757.777,612.989 756.555,612.914C756.798,613.539 757.041,614.614 757.085,615.214C758.91,615.214 760.163,615.164 760.907,614.789C761.677,614.414 761.965,613.689 762.029,612.464L763.035,593.264Z" style="fill-rule:nonzero;"/>
            <path d="M774.221,595.439C775.686,595.164 777.08,594.789 778.279,594.339L776.823,592.539C774.552,593.414 770.737,594.189 767.438,594.639C767.661,595.164 767.92,595.939 767.994,596.439C769.227,596.289 770.56,596.139 771.871,595.914L771.676,599.639L767.026,599.639L766.914,601.789L770.989,601.789C769.784,604.739 767.816,607.939 765.896,609.764C766.289,610.364 766.792,611.264 767.008,611.914C768.565,610.339 770.124,607.789 771.388,605.139L770.861,615.189L773.186,615.189L773.72,605.014C774.625,606.339 775.691,607.939 776.144,608.839L777.644,606.939C777.108,606.189 774.782,603.339 773.858,602.364L773.889,601.789L777.914,601.789L778.026,599.639L774.001,599.639L774.221,595.439ZM780.542,609.839L781.223,596.839L786.098,596.839L785.417,609.839L780.542,609.839ZM779.09,594.614L778.069,614.089L780.319,614.089L780.425,612.064L785.3,612.064L785.203,613.914L787.578,613.914L788.59,594.614L779.09,594.614Z" style="fill-rule:nonzero;"/>
            <path d="M795.651,610.614L795.941,605.089L800.591,605.089L800.301,610.614L795.651,610.614ZM800.946,598.314L800.697,603.064L796.047,603.064L796.296,598.314L800.946,598.314ZM808.133,596.164C808.591,595.064 808.976,593.914 809.337,592.764L807.114,592.239C806.191,595.539 804.692,598.864 802.929,601.014L803.177,596.289L799.177,596.289C799.632,595.239 800.176,593.914 800.667,592.664L798.164,592.239C797.951,593.439 797.49,595.089 797.077,596.289L794.277,596.289L793.319,614.564L795.444,614.564L795.544,612.664L802.319,612.664L802.92,601.189C803.478,601.514 804.32,602.139 804.677,602.489C805.537,601.339 806.388,599.889 807.172,598.289L813.072,598.289C812.253,607.714 811.73,611.489 810.887,612.314C810.594,612.664 810.315,612.739 809.815,612.739C809.19,612.739 807.741,612.714 806.148,612.589C806.538,613.239 806.762,614.214 806.78,614.839C808.201,614.914 809.674,614.939 810.555,614.839C811.511,614.714 812.123,614.489 812.791,613.664C813.857,612.414 814.36,608.539 815.301,597.264C815.341,596.964 815.383,596.164 815.383,596.164L808.133,596.164ZM810.742,607.439C810.07,605.964 808.494,603.589 807.26,601.864L805.381,602.889C806.612,604.689 808.108,607.139 808.728,608.664L810.742,607.439Z" style="fill-rule:nonzero;"/>
            <path d="M832.121,606.414L828.321,606.414L828.494,603.114L832.294,603.114L832.121,606.414ZM837.294,603.114L837.341,602.214C838.323,603.039 839.413,603.714 840.584,604.264C840.967,603.639 841.74,602.714 842.289,602.264C840.746,601.639 839.344,600.739 838.101,599.639C839.321,598.789 840.753,597.689 841.908,596.639L840.246,595.439C839.399,596.339 838.063,597.514 836.865,598.414C836.418,597.889 835.972,597.339 835.577,596.764C836.694,595.964 838.026,594.864 839.155,593.839L837.469,592.614C836.777,593.414 835.674,594.439 834.654,595.289C834.129,594.339 833.705,593.364 833.359,592.339L831.277,592.939C832.291,596.014 833.872,598.764 835.934,600.914L825.459,600.914C827.556,599.064 829.353,596.739 830.475,593.939L828.988,593.214L828.559,593.289L821.734,593.289L821.628,595.314L827.328,595.314C826.725,596.314 825.999,597.289 825.179,598.164C824.49,597.464 823.411,596.589 822.542,595.989L821.028,597.214C821.892,597.914 822.992,598.864 823.653,599.614C822.162,600.864 820.508,601.889 818.848,602.564C819.277,602.964 819.909,603.789 820.156,604.314C821.41,603.764 822.648,603.039 823.816,602.214L823.769,603.114L826.194,603.114L826.021,606.414L820.446,606.414L820.333,608.564L825.633,608.564C825.01,610.439 823.441,612.239 819.524,613.514C819.978,613.914 820.656,614.814 820.903,615.339C825.714,613.714 827.42,611.214 828.033,608.564L832.008,608.564L831.829,611.989C831.704,614.364 832.244,615.039 834.594,615.039L837.644,615.039C839.594,615.039 840.293,614.114 840.662,610.889C840.043,610.764 839.139,610.364 838.634,609.989C838.404,612.464 838.253,612.964 837.528,612.964L835.103,612.964C834.303,612.964 834.184,612.839 834.229,611.989L834.408,608.564L840.058,608.564L840.171,606.414L834.521,606.414L834.694,603.114L837.294,603.114Z" style="fill-rule:nonzero;"/>
            <path d="M862.283,601.414L857.108,601.414L857.994,601.214C857.903,600.564 857.549,599.689 857.135,598.989L862.635,598.989C862.35,599.664 861.928,600.564 861.569,601.214L862.283,601.414ZM854.975,599.189C855.338,599.889 855.667,600.764 855.808,601.414L852.283,601.414L852.194,603.114L858.594,603.114L858.519,604.539L853.094,604.539L853.007,606.214L858.432,606.214L858.352,607.739L851.777,607.739L851.685,609.489L858.26,609.489L858.153,611.539L860.428,611.539L860.535,609.489L867.36,609.489L867.452,607.739L860.627,607.739L860.707,606.214L866.482,606.214L866.569,604.539L860.794,604.539L860.869,603.114L867.594,603.114L867.683,601.414L863.633,601.414C864.04,600.814 864.505,600.039 864.998,599.214L864.085,598.989L868.135,598.989L868.226,597.264L861.176,597.264L861.26,595.664L866.66,595.664L866.747,593.989L861.347,593.989L861.436,592.289L859.161,592.289L859.072,593.989L853.847,593.989L853.76,595.664L858.985,595.664L858.901,597.264L852.026,597.264L851.935,598.989L855.885,598.989L854.975,599.189ZM851.694,596.914C851.008,595.689 849.345,594.039 847.954,592.914L846.111,594.214C847.523,595.414 849.107,597.139 849.742,598.389L851.694,596.914ZM850.753,601.989L845.528,601.989L845.415,604.139L848.415,604.139L848.1,610.164C847.001,611.089 845.726,612.039 844.691,612.714L845.72,615.014C847.002,613.939 848.154,612.939 849.258,611.914C850.682,613.839 852.789,614.664 855.882,614.789C858.777,614.889 864.08,614.839 866.961,614.714C867.122,614.039 867.528,612.964 867.83,612.439C864.644,612.664 858.84,612.739 856.021,612.614C853.253,612.489 851.318,611.714 850.334,609.989L850.753,601.989Z" style="fill-rule:nonzero;"/>
        </g>
    </g>
    <g transform="matrix(1.69033,0,0,1.69033,-532.48,-154.361)">
        <path d="M440.041,170.681L439.209,170.919L424.948,170.919L424.948,148.221L421.502,148.221L421.502,170.919L403.202,170.919L403.202,174.365L437.426,174.365C429.464,192.191 413.303,209.659 399.042,219.523C399.874,219.998 400.944,221.186 401.538,222.018C408.074,217.265 415.085,211.085 421.502,203.836L421.502,254.936L424.948,254.936L424.948,200.628C429.464,204.787 438.02,213.343 440.872,216.552L443.011,213.462C440.516,210.848 430.653,201.46 426.493,197.895C432.91,189.933 438.377,181.139 442.061,172.107L440.041,170.681ZM478.424,217.384L478.424,196.587L503.023,196.587L503.023,217.384L478.424,217.384ZM451.686,217.384L451.686,196.587L474.978,196.587L474.978,217.384L451.686,217.384ZM474.978,172.701L474.978,193.022L451.686,193.022L451.686,172.701L474.978,172.701ZM503.023,172.701L503.023,193.022L478.424,193.022L478.424,172.701L503.023,172.701ZM478.424,169.136L478.424,147.984L474.978,147.984L474.978,169.136L448.121,169.136L448.121,226.296L451.686,226.296L451.686,220.83L474.978,220.83L474.978,255.411L478.424,255.411L478.424,220.83L503.023,220.83L503.023,225.702L506.47,225.702L506.47,169.136L478.424,169.136Z" style="fill:rgb(31,31,31);fill-rule:nonzero;"/>
        <path d="M612.233,192.785L599.755,192.785L599.755,168.542L612.233,168.542L612.233,192.785ZM612.233,221.305L599.755,221.305L599.755,196.35L612.233,196.35L612.233,221.305ZM568.026,196.35L580.148,196.35L580.148,221.305L568.026,221.305L568.026,196.35ZM596.19,196.35L596.19,221.305L583.594,221.305L583.594,196.35L596.19,196.35ZM583.594,192.785L583.594,168.542L596.19,168.542L596.19,192.785L583.594,192.785ZM568.026,168.542L580.148,168.542L580.148,192.785L568.026,192.785L568.026,168.542ZM564.58,192.785L552.221,192.785L552.221,196.35L564.58,196.35L564.58,221.305L553.647,221.305L553.647,224.87L627.563,224.87L627.563,221.305L615.798,221.305L615.798,196.35L628.276,196.35L628.276,192.785L615.798,192.785L615.798,168.542L625.78,168.542L625.78,165.096L568.026,165.096C570.522,160.105 572.78,154.639 574.562,149.172L571.116,148.34C566.838,161.65 559.708,174.365 551.271,183.04C552.221,183.516 553.766,184.704 554.36,185.179C558.044,181.376 561.49,176.623 564.58,171.394L564.58,192.785ZM555.786,202.529L555.192,198.964L540.813,204.074L540.813,177.217L553.528,177.217L553.528,173.652L540.813,173.652L540.813,148.34L537.248,148.34L537.248,173.652L520.373,173.652L520.373,177.217L537.248,177.217L537.248,205.381C530.237,207.877 523.82,210.135 518.829,211.798L520.373,215.363C525.364,213.581 531.069,211.561 537.248,209.303L537.248,249.707C537.248,251.489 536.535,251.965 535.109,251.965C533.683,252.084 528.692,252.084 522.631,251.965C523.225,253.034 523.82,254.579 524.057,255.292C531.425,255.411 535.465,255.292 537.486,254.698C539.744,254.104 540.813,252.915 540.813,249.707L540.813,207.996L555.786,202.529ZM554.123,255.411C561.49,250.063 565.293,240.557 567.432,231.882L564.343,230.931C562.322,239.249 558.282,248.4 551.271,253.391L554.123,255.411ZM577.652,232.476C579.553,239.606 580.861,248.756 580.861,254.223L584.307,253.747C584.426,248.4 583,239.368 581.098,232.238L577.652,232.476ZM593.814,232C597.141,238.893 600.35,248.043 601.538,253.628L604.865,252.44C603.796,247.093 600.35,238.061 596.903,231.287L593.814,232ZM609.857,231.169C616.036,238.655 622.572,248.994 625.424,255.53L628.514,253.747C625.662,247.33 618.888,237.229 612.709,229.624L609.857,231.169Z" style="fill:rgb(31,31,31);fill-rule:nonzero;"/>
        <path d="M697.557,222.969L697.557,219.523C688.288,220.711 679.019,221.899 670.225,222.969L670.225,215.126C676.88,210.967 684.961,204.431 690.07,197.776L687.575,196.231L686.862,196.469L667.729,196.469C671.294,192.904 674.741,188.982 677.949,184.942L696.606,184.942L696.606,181.376L680.564,181.376C686.981,172.583 692.447,162.719 696.963,151.905L693.517,150.836C689.001,162.006 683.178,172.226 676.286,181.376L666.303,181.376L666.303,165.928L684.248,165.928L684.248,162.363L666.303,162.363L666.303,148.221L662.738,148.221L662.738,162.363L644.794,162.363L644.794,165.928L662.738,165.928L662.738,181.376L639.447,181.376L639.447,184.942L673.433,184.942C670.106,188.982 666.541,192.904 662.738,196.469L648.835,196.469L648.835,199.915L658.936,199.915C652.281,205.738 644.913,210.729 637.07,214.888C638.021,215.601 639.565,216.908 640.16,217.621C648.835,212.63 656.915,206.688 664.164,199.915L683.772,199.915C680.088,203.955 675.097,208.233 670.225,211.561L666.779,211.561L666.779,223.444C656.084,224.751 646.458,225.94 639.209,226.772L639.922,230.456L666.779,227.009L666.779,249.826C666.779,251.133 666.422,251.608 664.759,251.727C662.976,251.846 658.104,251.846 650.855,251.727C651.568,252.797 652.162,254.223 652.4,255.173C660.124,255.173 664.759,255.173 667.135,254.579C669.512,253.866 670.225,252.678 670.225,249.707L670.225,226.534L697.557,222.969ZM707.42,174.246L734.871,174.246C731.901,193.141 727.385,208.59 720.374,221.305C714.075,208.114 709.797,192.309 707.064,175.316L707.42,174.246ZM746.755,174.246L746.755,170.8L708.49,170.8C710.629,163.908 712.412,156.54 713.956,148.934L710.391,148.34C706.589,168.305 700.171,187.675 690.902,200.39C691.853,200.866 693.517,201.935 694.23,202.41C698.27,196.587 701.716,189.457 704.806,181.495C707.777,197.657 712.174,212.393 718.234,224.87C710.867,236.635 700.884,245.785 687.218,252.559C688.05,253.272 689.239,254.698 689.714,255.53C702.786,248.519 712.649,239.606 720.017,228.435C726.434,240.2 734.515,249.469 744.616,255.411C745.21,254.46 746.398,253.272 747.349,252.559C736.892,246.974 728.573,237.348 722.156,224.989C730.237,211.561 735.228,194.924 738.555,174.246L746.755,174.246Z" style="fill:rgb(31,31,31);fill-rule:nonzero;"/>
        <path d="M781.811,231.05L781.811,218.334L843.131,218.334L843.131,231.05L781.811,231.05ZM843.131,202.173L843.131,214.769L781.811,214.769L781.811,202.173L843.131,202.173ZM846.577,198.608L778.365,198.608L778.365,255.292L781.811,255.292L781.811,234.496L843.131,234.496L843.131,249.588C843.131,251.252 842.655,251.727 840.754,251.846C838.734,251.965 832.435,252.084 824.355,251.846C824.949,252.915 825.662,254.341 825.899,255.173C835.287,255.173 840.635,255.173 843.249,254.579C845.745,253.985 846.577,252.559 846.577,249.588L846.577,198.608ZM863.808,161.412L813.422,161.412L813.422,148.221L809.857,148.221L809.857,161.412L760.54,161.412L760.54,164.858L796.072,164.858C792.269,171.038 786.208,179.356 781.336,184.704L765.769,184.942L766.006,188.625C787.04,188.269 819.363,187.318 850.023,186.368C853.588,189.338 856.678,192.072 858.936,194.448L861.431,191.834C854.776,184.942 841.11,174.959 829.702,168.067L827.207,170.206C833.386,174.009 840.16,178.643 846.101,183.278C824.949,183.872 803.202,184.347 785.614,184.585C790.486,179 796.072,171.394 800.231,165.096L799.756,164.858L863.808,164.858L863.808,161.412Z" style="fill:rgb(31,31,31);fill-rule:nonzero;"/>
    </g>
</svg>
